<?xml version="1.0" encoding="UTF-8"?>
<svg width="1600" height="1000" viewBox="0 0 1600 1000" xmlns="http://www.w3.org/2000/svg">
  <defs>
    <linearGradient id="bg" x1="0" y1="0" x2="0" y2="1">
      <stop offset="0" stop-color="#121212"/>
      <stop offset="1" stop-color="#0f1115"/>
    </linearGradient>
    <style>
      .title{fill:#e5e7eb;font:600 40px ui-sans-serif,system-ui,-apple-system,Segoe UI,Roboto,Ubuntu,"Helvetica Neue",Arial;}
      .label{fill:#9ca3af;font:600 20px ui-sans-serif,system-ui,-apple-system,Segoe UI,Roboto,Ubuntu,"Helvetica Neue",Arial;letter-spacing:.06em;text-transform:uppercase}
      .body{fill:#cbd5e1;font:400 24px ui-sans-serif,system-ui,-apple-system,Segoe UI,Roboto,Ubuntu,"Helvetica Neue",Arial}
      .pill{fill:#111827;stroke:#374151;stroke-opacity:.6}
      .card{fill:#0b0d12;fill-opacity:.8;stroke:#1f2937}
      .icon{fill:#60a5fa}
    </style>
  </defs>
  <rect width="1600" height="1000" fill="url(#bg)"/>
  <text x="60" y="90" class="title">WindTalker — Personas</text>

  <g transform="translate(60,140)">
    <rect rx="20" ry="20" width="450" height="760" class="card"/>
    <g transform="translate(30,30)">
      <circle cx="32" cy="32" r="22" class="icon"/>
      <rect x="70" y="14" width="120" height="36" rx="18" class="pill"/>
      <text x="90" y="40" class="label">Operator</text>
      <text x="0" y="120" class="body">Goal: Reliable comms in the field.</text>
      <text x="0" y="160" class="body">Pain: Complex setup.</text>
    </g>
  </g>

  <g transform="translate(575,140)">
    <rect rx="20" ry="20" width="450" height="760" class="card"/>
    <g transform="translate(30,30)">
      <rect x="10" y="10" width="44" height="44" rx="8" class="icon"/>
      <rect x="70" y="14" width="140" height="36" rx="18" class="pill"/>
      <text x="90" y="40" class="label">Technician</text>
      <text x="0" y="120" class="body">Goal: Fast, correct deployment.</text>
      <text x="0" y="160" class="body">Pain: Long configuration time.</text>
    </g>
  </g>

  <g transform="translate(1090,140)">
    <rect rx="20" ry="20" width="450" height="760" class="card"/>
    <g transform="translate(30,30)">
      <polygon points="32,10 54,54 10,54" class="icon"/>
      <rect x="70" y="14" width="200" height="36" rx="18" class="pill"/>
      <text x="90" y="40" class="label">Mission Lead</text>
      <text x="0" y="120" class="body">Goal: Operational readiness.</text>
      <text x="0" y="160" class="body">Pain: Delays due to tech issues.</text>
    </g>
  </g>
</svg>
